<svg version="1.1" id="Layer_1" xmlns="http://www.w3.org/2000/svg" xmlns:xlink="http://www.w3.org/1999/xlink" x="0px" y="0px"
	 width="100%" viewBox="0 0 101 52" enable-background="new 0 0 101 52" xml:space="preserve">
<path fill="#FFF" opacity="0.000000" stroke="none" 
	d="
M81.000557,53.000000 
	C54.000408,53.000000 27.500439,53.000000 1.000350,53.000000 
	C1.000233,35.666840 1.000233,18.333681 1.000117,1.000392 
	C34.666454,1.000261 68.332909,1.000261 101.999527,1.000131 
	C101.999680,18.333105 101.999680,35.666210 101.999840,52.999657 
	C95.166908,53.000000 88.333824,53.000000 81.000557,53.000000 
M9.160976,35.377277 
	C9.161615,36.709736 9.260279,38.050873 9.143188,39.372906 
	C8.870451,42.452286 9.881454,43.998112 13.298940,43.939068 
	C16.586113,43.882278 17.152115,42.159367 17.084200,39.454922 
	C16.990341,35.717384 17.060650,31.975719 17.060650,28.235825 
	C17.499147,28.093653 17.937645,27.951481 18.376143,27.809307 
	C20.825718,31.241575 23.275293,34.673843 26.072872,38.593719 
	C29.007641,34.353497 31.294989,31.048687 33.582336,27.743877 
	C34.039265,27.870901 34.496197,27.997927 34.953129,28.124952 
	C34.953129,32.027210 35.059933,35.933361 34.917774,39.830437 
	C34.812775,42.708878 35.670948,44.107132 38.853134,44.066090 
	C42.047562,44.024891 42.786926,42.507931 42.753704,39.699699 
	C42.661106,31.872631 42.875374,24.038652 42.614456,16.219212 
	C42.551041,14.318705 41.553291,11.317362 40.236450,10.825121 
	C37.450336,9.783658 34.478249,10.299190 32.729931,13.765297 
	C30.908388,17.376577 28.507692,20.695728 25.943363,24.811689 
	C23.033051,20.311672 21.066586,16.372494 18.216175,13.236856 
	C16.756863,11.631520 13.738792,11.049793 11.374641,10.918924 
	C10.731237,10.883308 9.341053,14.139545 9.263753,15.926948 
	C8.997734,22.078056 9.161250,28.247744 9.160976,35.377277 
M88.427505,26.086464 
	C86.264473,26.097178 84.004189,25.736336 81.977196,26.266830 
	C80.873650,26.555643 79.475906,28.354757 79.471237,29.477934 
	C79.466423,30.635332 80.777130,32.137825 81.912552,32.859676 
	C82.937660,33.511402 84.503647,33.312378 86.291496,33.549622 
	C82.205948,37.917629 77.259232,38.328754 73.501945,35.170170 
	C69.730553,31.999723 69.120483,26.269691 72.107841,22.076157 
	C74.819946,18.269003 80.188301,16.984030 83.962326,20.028381 
	C87.599060,22.961994 89.743073,21.638895 92.111900,18.900389 
	C88.512505,11.970713 80.285744,9.012547 73.378113,12.002482 
	C64.899673,15.672332 61.018501,24.613823 64.016281,33.570362 
	C66.769302,41.795624 75.157433,46.384731 83.438652,44.196255 
	C91.383278,42.096725 95.750542,35.002769 94.120827,26.345917 
	C92.594437,26.263088 90.972466,26.175074 88.427505,26.086464 
M66.879974,9.404394 
	C66.887268,8.704365 66.948494,7.396000 66.894157,7.391182 
	C63.395840,7.081024 59.784386,5.761580 57.277721,10.002419 
	C54.925449,13.982055 52.188507,17.800905 49.172894,21.305010 
	C45.405823,25.682299 45.198013,29.525032 49.216854,33.834270 
	C51.229137,35.991959 52.693024,38.678040 54.302158,41.190948 
	C56.978870,45.371040 60.527637,45.072147 65.242973,43.486637 
	C62.283409,39.211594 59.785358,35.345741 57.014534,31.686430 
	C54.985695,29.007038 54.361362,26.877171 56.803837,23.862217 
	C60.342125,19.494610 63.267513,14.630475 66.879974,9.404394 
z"/>
<path fill="#EB2E80" opacity="1.000000" stroke="none" 
	d="
M9.161041,34.893814 
	C9.161250,28.247744 8.997734,22.078056 9.263753,15.926948 
	C9.341053,14.139545 10.731237,10.883308 11.374641,10.918924 
	C13.738792,11.049793 16.756863,11.631520 18.216175,13.236856 
	C21.066586,16.372494 23.033051,20.311672 25.943363,24.811689 
	C28.507692,20.695728 30.908388,17.376577 32.729931,13.765297 
	C34.478249,10.299190 37.450336,9.783658 40.236450,10.825121 
	C41.553291,11.317362 42.551041,14.318705 42.614456,16.219212 
	C42.875374,24.038652 42.661106,31.872631 42.753704,39.699699 
	C42.786926,42.507931 42.047562,44.024891 38.853134,44.066090 
	C35.670948,44.107132 34.812775,42.708878 34.917774,39.830437 
	C35.059933,35.933361 34.953129,32.027210 34.953129,28.124952 
	C34.496197,27.997927 34.039265,27.870901 33.582336,27.743877 
	C31.294989,31.048687 29.007641,34.353497 26.072872,38.593719 
	C23.275293,34.673843 20.825718,31.241575 18.376143,27.809307 
	C17.937645,27.951481 17.499147,28.093653 17.060650,28.235825 
	C17.060650,31.975719 16.990341,35.717384 17.084200,39.454922 
	C17.152115,42.159367 16.586113,43.882278 13.298940,43.939068 
	C9.881454,43.998112 8.870451,42.452286 9.143188,39.372906 
	C9.260279,38.050873 9.161615,36.709736 9.161041,34.893814 
z"/>
<path fill="#EB3182" opacity="1.000000" stroke="none" 
	d="
M88.889000,26.086761 
	C90.972466,26.175074 92.594437,26.263088 94.120827,26.345917 
	C95.750542,35.002769 91.383278,42.096725 83.438652,44.196255 
	C75.157433,46.384731 66.769302,41.795624 64.016281,33.570362 
	C61.018501,24.613823 64.899673,15.672332 73.378113,12.002482 
	C80.285744,9.012547 88.512505,11.970713 92.111900,18.900389 
	C89.743073,21.638895 87.599060,22.961994 83.962326,20.028381 
	C80.188301,16.984030 74.819946,18.269003 72.107841,22.076157 
	C69.120483,26.269691 69.730553,31.999723 73.501945,35.170170 
	C77.259232,38.328754 82.205948,37.917629 86.291496,33.549622 
	C84.503647,33.312378 82.937660,33.511402 81.912552,32.859676 
	C80.777130,32.137825 79.466423,30.635332 79.471237,29.477934 
	C79.475906,28.354757 80.873650,26.555643 81.977196,26.266830 
	C84.004189,25.736336 86.264473,26.097178 88.889000,26.086761 
z"/>
<path fill="#EB3181" opacity="1.000000" stroke="none" 
	d="
M66.667160,9.691267 
	C63.267513,14.630475 60.342125,19.494610 56.803837,23.862217 
	C54.361362,26.877171 54.985695,29.007038 57.014534,31.686430 
	C59.785358,35.345741 62.283409,39.211594 65.242973,43.486637 
	C60.527637,45.072147 56.978870,45.371040 54.302158,41.190948 
	C52.693024,38.678040 51.229137,35.991959 49.216854,33.834270 
	C45.198013,29.525032 45.405823,25.682299 49.172894,21.305010 
	C52.188507,17.800905 54.925449,13.982055 57.277721,10.002419 
	C59.784386,5.761580 63.395840,7.081024 66.894157,7.391182 
	C66.948494,7.396000 66.887268,8.704365 66.667160,9.691267 
z"/>
</svg>